<svg height="220" width="220" xmlns="http://www.w3.org/2000/svg"><circle cx="110" cy="110" fill="#fab007" r="100"/><g fill-rule="evenodd"><path d="m191.7 71.891s-7.915-33.247-49.183-45.145-43.961-10.4-60.223-3.01-32.116 20.064-32.116 20.064c-3.742 3.52-13.145 17.627-14.052 21.068s-18.252 21.289-17.063 45.146 12.6 56.761 22.082 62.2 25.084 25.414 42.155 27.086 40.95 7.981 55.205-1 48.363-25.336 54.2-50.161 2.96-73.167-1.005-76.248z" fill="#e85757"/><path d="m187.867 73.561s-7.556-31.809-46.951-43.193-41.966-9.951-57.491-2.879-30.662 19.2-30.662 19.2c-3.572 3.365-12.548 16.861-13.414 20.153s-17.424 20.368-16.289 43.193 12.028 54.307 21.08 59.51 23.946 24.316 40.244 25.916 39.093 7.636 52.7-.96 46.169-24.24 51.741-47.992 2.825-70.001-.958-72.948z" fill="#ffd473"/><path d="m133.193 80.979a12.1 12.1 0 1 1 12.1-12.1 12.1 12.1 0 0 1 -12.1 12.1zm0-18.15a6.05 6.05 0 1 0 6.049 6.05 6.049 6.049 0 0 0 -6.049-6.05zm-41.129 64.13a8.471 8.471 0 1 1 8.468-8.47 8.469 8.469 0 0 1 -8.468 8.47zm0-12.7a4.235 4.235 0 1 0 4.234 4.235 4.234 4.234 0 0 0 -4.234-4.24zm-41.129-1.815a8.47 8.47 0 1 1 8.468-8.47 8.469 8.469 0 0 1 -8.468 8.465zm0-12.705a4.235 4.235 0 1 0 4.234 4.235 4.234 4.234 0 0 0 -4.234-4.24zm85.888 50.214a9.68 9.68 0 1 1 -9.678 9.68 9.679 9.679 0 0 1 9.678-9.685zm0 14.52a4.84 4.84 0 1 0 -4.839-4.84 4.839 4.839 0 0 0 4.839 4.835z" fill="#34495e"/><path d="m147.71 114.852v-29.027c7.37.137 13.306 6.58 13.306 14.514s-5.936 14.377-13.306 14.513z" fill="#e85757"/><path d="m147.71 112.465v-23.777c6.057.136 10.93 5.4 10.93 11.889s-4.873 11.752-10.93 11.888z" fill="#f38a8a"/><path d="m112.629 125.742v-29.027c7.37.137 13.306 6.58 13.306 14.514s-5.935 14.376-13.306 14.513z" fill="#e85757"/><path d="m112.629 123.355v-23.777c6.057.136 10.93 5.4 10.93 11.889s-4.873 11.753-10.93 11.888z" fill="#f38a8a"/><path d="m76.252 160.476 37.873-16c3.731 9.336-1.527 20.346-11.878 24.718s-21.907.468-25.995-8.718z" fill="#e85757"/><path d="m79.366 159.161 31.024-13.1c3.035 7.685-1.249 16.711-9.714 20.286s-17.919.353-21.31-7.186z" fill="#f38a8a"/><path d="m87.087 80.148-22.36-23.455c5.838-5.358 15.419-4.555 21.53 1.856s6.457 16.021.83 21.599z" fill="#e85757"/><path d="m85.248 78.219-18.316-19.213c4.816-4.384 12.662-3.744 17.66 1.5s5.263 13.11.656 17.713z" fill="#f38a8a"/><path d="m106.581 47.1-3.629-2.42s-9.515 22.558-7.258 41.139l4.838-1.21s-3.373-12.259 6.049-37.509zm72.58 106.478 4.839-2.42s-14-33-45.968-22.99l1.21 4.84s25.164-9.996 39.919 20.57zm-129.435-6.05-3.629-2.42s11.547-23.922 42.339-9.679l-2.419 3.629s-24.211-10.758-36.291 8.47z" fill="#67be5e"/><path d="m124.125 35a5.438 5.438 0 1 1 -5.437 5.438 5.437 5.437 0 0 1 5.437-5.438zm33.875 37.5a3.031 3.031 0 1 1 -3.031 3.031 3.031 3.031 0 0 1 3.031-3.031zm-84.687 27.844a3.016 3.016 0 1 1 -3.031 3.015 3.023 3.023 0 0 1 3.031-3.015zm-22.985-26.625a3.031 3.031 0 1 1 -3.016 3.031 3.023 3.023 0 0 1 3.016-3.031zm22.391 94.375a4.844 4.844 0 1 1 -4.844 4.844 4.843 4.843 0 0 1 4.844-4.844zm53.219-41.125a3.625 3.625 0 1 1 -3.626 3.625 3.624 3.624 0 0 1 3.626-3.625zm53.828-2.438a4.235 4.235 0 1 1 -4.235 4.235 4.235 4.235 0 0 1 4.235-4.235zm-81.066-30.25a4.234 4.234 0 1 1 -4.234 4.234 4.235 4.235 0 0 1 4.234-4.234z" fill="#ffe4a6"/><path d="m109 55.563h4.844v8.469h-4.844zm5.552 27.029 3.022-2.01 4.019 6.045-3.022 2.01zm-.72 94.286 4.159-2.7 5.532 8.135-4.159 2.705zm-49.286-81.359 3.779-3.019 5.29 6.614-3.778 3.024zm35.984 39.31-3.53-3.047-4.937 6.665 3.526 3.048zm-58.064-13.309-3.526-3.048-4.94 6.665 3.526 3.048zm133.065-5.6-2.519-2.286-3.527 5 2.515 2.287z" fill="#9a8257"/></g></svg>